<svg width="100" height="100" viewBox="0 0 100 100" fill="none" xmlns="http://www.w3.org/2000/svg">
<rect x="10" y="10" width="80" height="80" rx="20" fill="#111827"/>
<path d="M34.2276 35.9091H41.8129L49.8242 55.4545H50.1651L58.1765 35.9091H65.7617V65H59.7958V46.0653H59.5543L52.0259 64.858H47.9634L40.435 45.9943H40.1935V65H34.2276V35.9091Z" fill="white"/>
<path d="M49.9231 57.9L46.4868 47.1H53.4932L50.0569 57.9H49.9231Z" fill="#111827" stroke="#262626" stroke-width="0.2"/>
<path d="M42.8232 35.9091L49.8544 58.0114H50.1243L57.1697 35.9091H63.9879L53.9595 65H46.0334L35.9908 35.9091H42.8232Z" fill="#D53BC1"/>
<path d="M36 36H42.8199L50 58L57 36H64M36 36L46 65H54L64 36M36 36H34V65H40.5V49.5M64 36H65.5H66V65H59.5V49" stroke="black" stroke-width="0.6"/>
</svg>
